<?xml version="1.0" encoding="UTF-8"?>
<svg width="24px" height="24px" viewBox="0 0 24 24" version="1.1" xmlns="http://www.w3.org/2000/svg" xmlns:xlink="http://www.w3.org/1999/xlink">
    <!-- Generator: Sketch 52.5 (67469) - http://www.bohemiancoding.com/sketch -->
    <title>Scrum-vs-kanban</title>
    <desc>Created with Sketch.</desc>
    <g id="Scrum-vs-kanban" stroke="none" stroke-width="1" fill="none" fill-rule="evenodd">
        <g id="chrome_reader_mode-24px">
            <polygon id="Path" points="0 0 24 0 24 24 0 24"></polygon>
            <polygon id="Path" fill="#CECED6" points="3 5.5 11 5.5 11 18.5 3 18.5"></polygon>
            <path d="M21,3.5 L3,3.5 C1.9,3.5 1,4.4 1,5.5 L1,18.5 C1,19.6 1.9,20.5 3,20.5 L21,20.5 C22.1,20.5 23,19.6 23,18.5 L23,5.5 C23,4.4 22.1,3.5 21,3.5 Z" id="Shape" fill="#5D5D78" fill-rule="nonzero"></path>
            <polygon id="Path" fill="#CECED6" fill-rule="nonzero" points="11 18.5 3 18.5 3 5.5 11 5.5"></polygon>
            <polygon id="Path" fill="#EAEAEF" fill-rule="nonzero" points="21 18.5 13 18.5 13 5.5 21 5.5"></polygon>
            <polygon id="Path" fill="#5D5D78" fill-rule="nonzero" points="14 9 20 9 20 10.5 14 10.5"></polygon>
            <polygon id="Path" fill="#5D5D78" fill-rule="nonzero" points="14 11.5 20 11.5 20 13 14 13"></polygon>
            <polygon id="Path" fill="#5D5D78" fill-rule="nonzero" points="14 14 20 14 20 15.5 14 15.5"></polygon>
        </g>
    </g>
</svg>